<?xml version="1.0" standalone="no"?><!DOCTYPE svg PUBLIC "-//W3C//DTD SVG 1.1//EN" "http://www.w3.org/Graphics/SVG/1.1/DTD/svg11.dtd"><svg width="100%" height="100%" viewBox="0 0 24 24" version="1.1" xmlns="http://www.w3.org/2000/svg" xmlns:xlink="http://www.w3.org/1999/xlink" xml:space="preserve" style="fill-rule:evenodd;clip-rule:evenodd;stroke-linejoin:round;stroke-miterlimit:1.41421;"><g><path d="M10.1117,8.61389l-0.10161,4.09923l0.101652,1.97248c0.00238148,0.125647 0.102266,0.224875 0.227299,0.224875c0.124673,0 0.224515,-0.0992282 0.227256,-0.226283l0,0.00162999l0.113866,-1.97243l-0.113866,-4.09989c-0.00274135,-0.126621 -0.102583,-0.22606 -0.227256,-0.22606c-0.125033,0 -0.224917,0.0995352 -0.227341,0.226452Z" style="fill:url(#tag1);fill-rule:nonzero;"/><path d="M9.32424,8.4583l-0.111358,4.25464l0.111443,1.98497c0.00260375,0.116555 0.0952591,0.208903 0.210893,0.208903c0.115189,0 0.20776,-0.0923484 0.210893,-0.209919l0,0.00140772l0.12516,-1.98536l-0.12516,-4.25486c-0.00313297,-0.117529 -0.0957036,-0.209559 -0.210893,-0.209559c-0.115634,0 -0.208289,0.0921685 -0.210978,0.209782Z" style="fill:url(#tag2);fill-rule:nonzero;"/><path d="M7.76785,8.48869c0,9.52591e-05 -0.130674,4.22364 -0.130674,4.22364l0.130801,2.01662c0.0033129,0.0982121 0.0815947,0.175838 0.178135,0.175838c0.096,0 0.174197,-0.0774033 0.178166,-0.176632l0.147472,-2.01583l-0.147472,-4.22372c-0.00392679,-0.0992282 -0.0821663,-0.176938 -0.178166,-0.176938c-0.0965398,0 -0.174822,0.0777949 -0.178262,0.177023Z" style="fill:url(#tag3);fill-rule:nonzero;"/><path d="M8.54297,8.34659l-0.121011,4.36596l0.121148,2.0041c0.00299537,0.107293 0.0884216,0.192148 0.194487,0.192148c0.105621,0 0.190952,-0.0848123 0.194445,-0.192984l0.136358,-2.0031l-0.136316,-4.36621c-0.00348225,-0.10849 -0.0888238,-0.193387 -0.194487,-0.193387c-0.106066,0 -0.191492,0.085024 -0.194625,0.193471Z" style="fill:url(#tag4);fill-rule:nonzero;"/><path d="M4.72953,10.6082l-0.169392,2.10227l0.169392,2.03378c0.00472062,0.0628922 0.0532287,0.110479 0.112766,0.110479c0.0587431,0 0.107124,-0.0475872 0.112459,-0.110479l0.192413,-2.03378l-0.192413,-2.10266c-0.00533451,-0.0627969 -0.0537155,-0.110299 -0.112459,-0.110299c-0.0595369,0 -0.108045,0.0475872 -0.112766,0.110691Z" style="fill:url(#tag5);fill-rule:nonzero;"/><path d="M11.0178,7.63206c-0.0663321,0.0433979 -0.111093,0.118324 -0.112416,0.203401l-0.000878501,0.045989l-0.0911206,4.83069c0,0.00291069 0.0919991,1.96097 0.0919991,1.96097c4.23374e-05,0.00278368 0.000402205,0.00555678 0.000571555,0.00828754c0.00274135,0.0547316 0.0235078,0.105145 0.0567215,0.144879c0.0448459,0.0537579 0.112014,0.0882417 0.186369,0.0882417c0.0661098,0 0.126441,-0.0272018 0.170535,-0.0712221c0.0440626,-0.0438827 0.0719735,-0.104425 0.0732119,-0.171286l0.0101927,-0.193821l0.0924331,-1.76451l-0.102626,-4.87841c-0.00140772,-0.0836163 -0.0446342,-0.157527 -0.109103,-0.201148c-0.0387281,-0.0262407 -0.085077,-0.041588 -0.134643,-0.041588c-0.0481588,0 -0.0932269,0.0145979 -0.131246,0.0395145Z" style="fill:url(#tag6);fill-rule:nonzero;"/><path d="M5.47991,10.7606l-0.159866,1.95008l0.159866,2.05054c0.004329,0.0722381 0.0597592,0.127054 0.12896,0.127054c0.0685336,0 0.123964,-0.054774 0.128991,-0.127139l0.18113,-2.05045l-0.18113,-1.95087c-0.0049323,-0.0718889 -0.0604154,-0.126568 -0.128991,-0.126568c-0.0692004,0 -0.124631,0.0547316 -0.12896,0.127361Z" style="fill:url(#tag7);fill-rule:nonzero;"/><path d="M6.23642,9.53875c0,8.46748e-05 -0.150118,3.17274 -0.150118,3.17274l0.150118,2.05037c0.00392679,0.0800388 0.0678351,0.143323 0.14545,0.143323c0.0769164,0 0.140729,-0.0632838 0.145312,-0.143767l0,0.000613892l0.169836,-2.05054l-0.169836,-3.17288c-0.00458302,-0.0806633 -0.068396,-0.143767 -0.145312,-0.143767c-0.077615,0 -0.141523,0.0632415 -0.14545,0.143905Z" style="fill:url(#tag8);fill-rule:nonzero;"/><path d="M6.98703,8.82421c0,0.000222271 -0.140285,3.89835 -0.140285,3.89835l0.140465,2.03766c0.00360926,0.0891308 0.074662,0.159517 0.161761,0.159517c0.0863047,0 0.157262,-0.0701213 0.161634,-0.159824l0.158807,-2.03735l-0.158765,-3.89835c-0.00414906,-0.0899246 -0.0751912,-0.16031 -0.161676,-0.16031c-0.0870986,0 -0.158151,0.0703859 -0.16194,0.16031Z" style="fill:url(#tag9);fill-rule:nonzero;"/><path d="M11.7914,7.19356c-0.057727,0.0476295 -0.0950897,0.119646 -0.0961482,0.200044l-0.000571555,0.0268133l-0.106066,5.29376l0.0541178,0.978565l0.0525724,0.952326c0.00185226,0.140994 0.118449,0.257337 0.260195,0.257337c0.141259,0 0.257856,-0.116343 0.259846,-0.259369l0,0.00225447l0.115814,-1.93111l0,-4.23374e-05l-0.115814,-5.32093c-0.00123837,-0.0939361 -0.0524348,-0.176229 -0.127541,-0.221654c-0.0388975,-0.0235502 -0.0840609,-0.0373543 -0.132304,-0.0373543c-0.0620031,0 -0.119211,0.022316 -0.1641,0.0593612Z" style="fill:url(#tag10);fill-rule:nonzero;"/><path d="M2.54037,11.6435l-0.140375,1.06637l0.140375,1.0482c0.00529217,0.0441896 0.0369574,0.0750642 0.0770011,0.0750642c0.0389419,0 0.0704737,-0.0306099 0.0768688,-0.074662l0.166262,-1.0486l-0.166262,-1.06677c-0.00635061,-0.0439674 -0.0379269,-0.0747466 -0.0768688,-0.0747466c-0.0400437,0 -0.0717089,0.0309592 -0.0770011,0.0751488Z" style="fill:url(#tag11);fill-rule:nonzero;"/><path d="M3.2475,10.9856c0,0.000137596 -0.188842,1.72433 -0.188842,1.72433l0.188842,1.68635c0.00542448,0.0451105 0.0390298,0.0778373 0.0798239,0.0778373c0.0404851,0 0.0732087,-0.0318906 0.0796916,-0.0774456l0.214865,-1.68674l-0.214778,-1.72441c-0.00657076,-0.0458196 -0.0392944,-0.0775303 -0.0797795,-0.0775303c-0.0407942,0 -0.0743995,0.0326315 -0.0798239,0.077615Z" style="fill:url(#tag12);fill-rule:nonzero;"/><path d="M3.9854,10.6641c0,8.46748e-05 -0.179182,2.04595 -0.179182,2.04595l0.179182,1.97128c0.00508049,0.0548269 0.0455656,0.0944229 0.0962752,0.0944229c0.0498417,0 0.0901892,-0.039596 0.0961058,-0.0940207l0.203653,-1.97168l-0.203526,-2.04605c-0.00604366,-0.0546787 -0.0463912,-0.0942007 -0.0962329,-0.0942007c-0.0507096,0 -0.0911947,0.039649 -0.0962752,0.0942959Z" style="fill:url(#tag13);fill-rule:nonzero;"/><path d="M12.6656,6.86307c-0.178304,0.0691062 -0.225574,0.139846 -0.227299,0.277707l0,7.49605c0.00185226,0.144561 0.114046,0.256893 0.255136,0.271002c0.00599074,0.000613892 6.54681,0 6.54681,0c1.30441,0 2.36168,-1.04564 2.36168,-2.35016c0,-1.30457 -1.05727,-2.36199 -2.36168,-2.36199c-0.323669,0 -0.632415,0.0656229 -0.913535,0.183416c-0.187978,-2.12846 -1.97282,-3.79828 -4.15023,-3.79828c-0.532816,0 -1.05219,0.104741 -1.51088,0.28225Z" style="fill:url(#tag14);fill-rule:nonzero;"/><path d="M19.5948,17.0575l-0.17189,0l0,-1.06764l0.184591,0c0.368864,0 0.521067,0.176801 0.521067,0.533843c0,0.31934 -0.166809,0.5338 -0.533768,0.5338M19.6201,15.6504l-0.546364,0l0,1.74636l0.521067,0c0.449729,0 0.893213,-0.259581 0.893213,-0.873028c0,-0.638892 -0.368759,-0.873335 -0.867916,-0.873335M18.2877,16.6309c0,0.279257 -0.13675,0.451602 -0.358915,0.451602c-0.222271,0 -0.356904,-0.177203 -0.356904,-0.45645l0,-0.975697l-0.349283,0l0,0.980544c0,0.5088 0.284507,0.793233 0.706187,0.793233c0.443907,0 0.708516,-0.292149 0.708516,-0.798081l0,-0.975697l-0.349601,0l0,0.980544ZM16.12,17.0773c-0.282073,0 -0.399241,-0.24181 -0.399241,-0.553604c0,-0.312016 0.117169,-0.553783 0.399241,-0.553783c0.281755,0 0.398818,0.241768 0.398818,0.553783c0,0.311794 -0.117063,0.553604 -0.398818,0.553604M16.12,15.623c-0.476613,0 -0.758368,0.369044 -0.758368,0.900685c0,0.531556 0.281755,0.900442 0.758368,0.900442c0.476401,0 0.758474,-0.368886 0.758474,-0.900442c0,-0.531641 -0.282073,-0.900685 -0.758474,-0.900685M14.4996,15.6504l-0.349389,0l0,1.74636l1.04997,0l0,-0.344256l-0.700578,0l0,-1.40211ZM13.2043,15.9699c0.157072,0 0.256988,0.0698143 0.31933,0.18946l0.323987,-0.149811c-0.109654,-0.22695 -0.309169,-0.386551 -0.638448,-0.386551c-0.456344,0 -0.775631,0.369044 -0.775631,0.900685c0,0.55118 0.306321,0.900442 0.763248,0.900442c0.316789,0 0.526254,-0.147228 0.646068,-0.39433l-0.294456,-0.174779c-0.0921896,0.154891 -0.184591,0.222271 -0.341768,0.222271c-0.262047,0 -0.414324,-0.239555 -0.414324,-0.553604c0,-0.32423 0.150202,-0.553783 0.411996,-0.553783M11.2309,17.0575l-0.17226,0l0,-1.06764l0.184877,0c0.369171,0 0.521364,0.176801 0.521364,0.533843c0,0.31934 -0.167275,0.5338 -0.53398,0.5338M11.2557,15.6504l-0.546067,0l0,1.74636l0.521279,0c0.448956,0 0.893234,-0.259581 0.893234,-0.873028c0,-0.638892 -0.369394,-0.873335 -0.868445,-0.873335M9.91634,16.3889c0,0.0972384 0.00484763,0.316736 0.00484763,0.381788c-0.0223118,-0.0448988 -0.0797742,-0.132527 -0.122069,-0.197398l-0.61892,-0.922955l-0.334243,0l0,1.74636l0.344383,0l0,-0.76837c0,-0.097249 -0.00511224,-0.316789 -0.00511224,-0.381746c0.0226717,0.0448988 0.0799965,0.132124 0.122112,0.19726l0.641284,0.952856l0.312058,0l0,-1.74636l-0.34434,0l0,0.738565ZM8.0602,16.6309c0,0.279257 -0.137152,0.451602 -0.359032,0.451602c-0.222049,0 -0.356777,-0.177203 -0.356777,-0.45645l0,-0.975697l-0.349241,0l0,0.980544c0,0.5088 0.284497,0.793233 0.706018,0.793233c0.443886,0 0.708273,-0.292149 0.708273,-0.798081l0,-0.975697l-0.349241,0l0,0.980544ZM5.89262,17.0773c-0.28203,0 -0.399294,-0.24181 -0.399294,-0.553604c0,-0.312016 0.117264,-0.553783 0.399294,-0.553783c0.281893,0 0.398977,0.241768 0.398977,0.553783c0,0.311794 -0.117084,0.553604 -0.398977,0.553604M5.89262,15.623c-0.476433,0 -0.758326,0.369044 -0.758326,0.900685c0,0.531556 0.281893,0.900442 0.758326,0.900442c0.476295,0 0.758315,-0.368886 0.758315,-0.900442c0,-0.531641 -0.28202,-0.900685 -0.758315,-0.900685M4.28565,16.3289c-0.277003,-0.0650937 -0.351665,-0.099895 -0.351665,-0.20957c0,-0.077181 0.0622677,-0.157178 0.249304,-0.157178c0.159728,0 0.284497,0.0651361 0.396648,0.179712l0.252172,-0.244498c-0.164809,-0.171911 -0.364324,-0.274357 -0.636214,-0.274357c-0.344383,0 -0.62363,0.194752 -0.62363,0.511668c0,0.343949 0.224515,0.446395 0.546279,0.52093c0.329311,0.0749266 0.389155,0.125107 0.389155,0.237301c0,0.13222 -0.0975136,0.189597 -0.30448,0.189597c-0.167095,0 -0.324061,-0.0573777 -0.446522,-0.199779l-0.25196,0.22461c0.132262,0.194551 0.386858,0.3168 0.678552,0.3168c0.476465,0 0.68613,-0.224388 0.68613,-0.556271c0,-0.379322 -0.306819,-0.474009 -0.583769,-0.538965" style="fill:#f04a22;fill-rule:nonzero;"/></g><defs><linearGradient id="tag1" x1="0" y1="0" x2="1" y2="0" gradientUnits="userSpaceOnUse" gradientTransform="matrix(5.10609e-16,8.33888,-8.33888,5.10609e-16,10.3451,6.58085)"><stop offset="0%" style="stop-color:#f6881e;stop-opacity:1"/><stop offset="100%" style="stop-color:#f04a22;stop-opacity:1"/></linearGradient><linearGradient id="tag2" x1="0" y1="0" x2="1" y2="0" gradientUnits="userSpaceOnUse" gradientTransform="matrix(5.10609e-16,8.33888,-8.33888,5.10609e-16,9.54206,6.58085)"><stop offset="0%" style="stop-color:#f6881e;stop-opacity:1"/><stop offset="100%" style="stop-color:#f04a22;stop-opacity:1"/></linearGradient><linearGradient id="tag3" x1="0" y1="0" x2="1" y2="0" gradientUnits="userSpaceOnUse" gradientTransform="matrix(5.10609e-16,8.33888,-8.33888,5.10609e-16,7.95447,6.58085)"><stop offset="0%" style="stop-color:#f6881e;stop-opacity:1"/><stop offset="100%" style="stop-color:#f04a22;stop-opacity:1"/></linearGradient><linearGradient id="tag4" x1="0" y1="0" x2="1" y2="0" gradientUnits="userSpaceOnUse" gradientTransform="matrix(5.10609e-16,8.33888,-8.33888,5.10609e-16,8.7452,6.58085)"><stop offset="0%" style="stop-color:#f6881e;stop-opacity:1"/><stop offset="100%" style="stop-color:#f04a22;stop-opacity:1"/></linearGradient><linearGradient id="tag5" x1="0" y1="0" x2="1" y2="0" gradientUnits="userSpaceOnUse" gradientTransform="matrix(5.10609e-16,8.33888,-8.33888,5.10609e-16,4.85365,6.58085)"><stop offset="0%" style="stop-color:#f6881e;stop-opacity:1"/><stop offset="100%" style="stop-color:#f04a22;stop-opacity:1"/></linearGradient><linearGradient id="tag6" x1="0" y1="0" x2="1" y2="0" gradientUnits="userSpaceOnUse" gradientTransform="matrix(5.10609e-16,8.33888,-8.33888,5.10609e-16,11.1544,6.58085)"><stop offset="0%" style="stop-color:#f6881e;stop-opacity:1"/><stop offset="100%" style="stop-color:#f04a22;stop-opacity:1"/></linearGradient><linearGradient id="tag7" x1="0" y1="0" x2="1" y2="0" gradientUnits="userSpaceOnUse" gradientTransform="matrix(5.10609e-16,8.33888,-8.33888,5.10609e-16,5.61954,6.58085)"><stop offset="0%" style="stop-color:#f6881e;stop-opacity:1"/><stop offset="100%" style="stop-color:#f04a22;stop-opacity:1"/></linearGradient><linearGradient id="tag8" x1="0" y1="0" x2="1" y2="0" gradientUnits="userSpaceOnUse" gradientTransform="matrix(5.10609e-16,8.33888,-8.33888,5.10609e-16,6.39167,6.58085)"><stop offset="0%" style="stop-color:#f6881e;stop-opacity:1"/><stop offset="100%" style="stop-color:#f04a22;stop-opacity:1"/></linearGradient><linearGradient id="tag9" x1="0" y1="0" x2="1" y2="0" gradientUnits="userSpaceOnUse" gradientTransform="matrix(5.10609e-16,8.33888,-8.33888,5.10609e-16,7.15806,6.58085)"><stop offset="0%" style="stop-color:#f6881e;stop-opacity:1"/><stop offset="100%" style="stop-color:#f04a22;stop-opacity:1"/></linearGradient><linearGradient id="tag10" x1="0" y1="0" x2="1" y2="0" gradientUnits="userSpaceOnUse" gradientTransform="matrix(5.10609e-16,8.33888,-8.33888,5.10609e-16,11.9599,6.58085)"><stop offset="0%" style="stop-color:#f6881e;stop-opacity:1"/><stop offset="100%" style="stop-color:#f04a22;stop-opacity:1"/></linearGradient><linearGradient id="tag11" x1="0" y1="0" x2="1" y2="0" gradientUnits="userSpaceOnUse" gradientTransform="matrix(5.10609e-16,8.33888,-8.33888,5.10609e-16,2.63024,6.58085)"><stop offset="0%" style="stop-color:#f6881e;stop-opacity:1"/><stop offset="100%" style="stop-color:#f04a22;stop-opacity:1"/></linearGradient><linearGradient id="tag12" x1="0" y1="0" x2="1" y2="0" gradientUnits="userSpaceOnUse" gradientTransform="matrix(5.10609e-16,8.33888,-8.33888,5.10609e-16,3.34028,6.58085)"><stop offset="0%" style="stop-color:#f6881e;stop-opacity:1"/><stop offset="100%" style="stop-color:#f04a22;stop-opacity:1"/></linearGradient><linearGradient id="tag13" x1="0" y1="0" x2="1" y2="0" gradientUnits="userSpaceOnUse" gradientTransform="matrix(5.10609e-16,8.33888,-8.33888,5.10609e-16,4.09383,6.58085)"><stop offset="0%" style="stop-color:#f6881e;stop-opacity:1"/><stop offset="100%" style="stop-color:#f04a22;stop-opacity:1"/></linearGradient><linearGradient id="tag14" x1="0" y1="0" x2="1" y2="0" gradientUnits="userSpaceOnUse" gradientTransform="matrix(5.09897e-16,8.32725,-8.32725,5.09897e-16,17.02,6.58084)"><stop offset="0%" style="stop-color:#f6881e;stop-opacity:1"/><stop offset="100%" style="stop-color:#f04a22;stop-opacity:1"/></linearGradient></defs></svg>